/* XPM */
static char *e6e4ff6c1aab4b72997b6273cda7edb76bjaNnxX4zNGXE9j[] = {
/* columns rows colors chars-per-pixel */
"64 64 70 1 ",
"  c #453D37",
". c #483D37",
"X c #483F3A",
"o c #47403C",
"O c #4C433E",
"+ c #53453E",
"@ c #59473F",
"# c #5A483F",
"$ c #4E4641",
"% c #4F4843",
"& c #524741",
"* c #584740",
"= c #544943",
"- c #5B4B44",
"; c #554E49",
": c #5B4F48",
"> c #56514C",
", c #5B534D",
"< c #5C5651",
"1 c #5E5954",
"2 c #5F5D58",
"3 c #624E45",
"4 c #604F48",
"5 c #645047",
"6 c #655047",
"7 c #6C5246",
"8 c #625048",
"9 c #66534A",
"0 c #67544B",
"q c #63574F",
"w c #64544C",
"e c #66564E",
"r c #695249",
"t c #69534A",
"y c #69544B",
"u c #6B544B",
"i c #6A554C",
"p c #6C564D",
"a c #67584F",
"s c #6B584F",
"d c #6C584F",
"f c #71564A",
"g c #73584C",
"h c #615750",
"j c #655750",
"k c #635A53",
"l c #645851",
"z c #635B54",
"x c #625B55",
"c c #655B54",
"v c #655D57",
"b c #685951",
"n c #6A5A52",
"m c #695B55",
"M c #6A5C55",
"N c #6C5C54",
"B c #6E5F57",
"V c #635E5A",
"C c #675E58",
"Z c #685F59",
"A c #715C53",
"S c #65615C",
"D c #66645F",
"F c #6B625C",
"G c #6B645F",
"H c #73645C",
"J c #6C6761",
"K c #6F6A65",
"L c #716760",
"P c #746A63",
/* pixels */
"555---*9-@--59l----****-*-----czkh8-----hz<,hzDVvv,>,,<,zC<>vGV8",
"9535335t333333l8----***@@--3--k,--3383-3-*---3Fq5ss-**-*-5**9*18",
"539--35t3#33e3e4*-88**@@83e8-3h-38ei399es3---8h--833e----38883ke",
"333-33uup9-353-*@**--@@@e9-@--,-*--38-3iu93-38zq---*8----8---8c8",
"beBe89ttu9e88bBMlllleeljbBB:8,1<8bMMq9389--33-le--3-989-*--8-*1C",
"k,,,h-*33eh111,<><V>,;;;>1<1VzC,>><kkeqh-*----l,hvZcvZSv,*-:q3bz",
"---@***3i-@,1oooXo=XXX%XXoX;z*****@**8-****----*-&O+*&=q-**-k39-",
"-35---*33-*->o%%%%oooo%ooo%;,-,*--8,--8@***,k*+-***-*&,-***=k38-",
"-----@@#@-*->oO%%%%%OOOooo%;z***-----*-@@@*:k+&*-**-&*-=-=*:c---",
"---8elMMl--,>o%;;$o$$o&oooO;>*--:8----:-***,z*-+**==,-*---+;,38-",
"l--lk,kkhh:--+-Ml*&-*+8-,<<2S<FG,zCJJFSCSzvzFCSz11zCSGFZzV11Szvv",
"-*-*--@*@*@@@@-#8355333uu9-8q88qS<*-,8,*++---8e,z<==&--&O&&=,=%=",
"*---8-#-*--*@**@ke----3ut333353-c,-**-8*******i9*=-:=O*=,&*=&&&*",
"-----*--*@*****@,8-9t5335ts93-55c,----------*-**=&&-=&&&*&&*=*&&",
"-33-39----@*@3-*;,39t-35335i35uuk,*******@******&+&&*&&O&&&&*O*=",
"vCCSCSJShvZkqvk,V1h9uMcGPS83i50BV<ecbjjqlhh,lqll<,<<>&+&*&&&:<SS",
"&%%O%%==1>&&&+O&qq,8:,:==;%%%%<1S<>>>>>1<,,hFMkch,cSch339=O&&,-=",
"-&&+&&&O>=++--*+&--8q:-**o$o$ooo%%%ooo%=O-35di30535t59330*&&&*&*",
"*&&O&===<--**q==*-:-8-*@->oo%%o==%%%%$O%&3359sbb9i9999339====&&*",
"&&&O&*-*<*+&+++----**+*+:1o%%%%&%%=oo=%oo35989099535t355Z;&&O++&",
",==:kkqh1>,k,,kk,&:h<<q,<<;%%%OO%%%%%=%%&999i3305iiBABBj1<,hh<,h",
"S1;z<<><211<>><zVSCk<hkkvS,k,--&>1<SSV1VSZFFFkb8-,,>>><<1<>C1>><",
"zVo=%%oo&;OXOo==&Vb3333335339u993Sz:=&&**=&O&,--*&ooO&=O&O&*OO&=",
",z%&%O%&:%%O%%&=&<85598-55e95-893Z,&==**&,-*-***-==OO=&%&&==OO%=",
"=k%%%%%%=%oooo%%%<e3599955i039533Z,+**-=*-,-==*=&&;=%O=&%&&&O%&=",
"=<o$$%$%%%%%%%%%%,q999995uii9i9091;@-*&=**------**=&&&&&%%%%%&==",
"-,**&&=&:VVSSVV1<VzvJSCC<<SSSGFZkVV1=:11,<,kCSSCFSCzzVCV<&**+&--",
"-*-8----v1=---++-,==:*-=V<==&&-**,:,--,-S<==%&=%&&%OOO&=1--****-",
"--*8-**-k=&---&+-:-:--*&<**-**8-&**-:---k;&&&==&&&&+OOOO>:***-**",
"*-88-*-3<=*--*&&*--,8-*---*&*---**--,----=&&&=&=&=&&&%%=z-******",
"--0i998-<=&-,-**-&-,--*=+,-+***-@*&**--**&&+==&&&-&O&&O&zq--*-*-",
"SFFSvFvz1**&+&-8,*-:-*-*=,:*:,:=,qklvkkhchk>kkc>==:**&=O<VzvGC><",
",---***-3@--*+hi353i939uMMe8czVVV1<<1<><<<>>>1z<h:--&--**&&O*:V<",
"3959---33*-3--h99iud5593335933S<==O&=OO%oOO&OO;-**&*****&***-@>-",
"3333---8999---,83Aiui3i3339i9uZ1==:;=&==&%&=&O<q,=-*--=-=*---&>-",
"33---3--3535--qetpA39tp393333tc>=&%&=%%%%%%%OO,,**&*-@-**&&-*@>,",
"eeeBHBMe-:eBje1kbHHBbHBe-ebBBe1>>,,<Sz<>==;>,>1zhhlhkhk,=,hq::1,",
",c>><,<12z<>>,z<,><1,k,<11;;><21,,><Vz112>z11<Czzv<,,>,122<1>>1<",
"O&%OOO&O1,*&@&-&++@@@&@+1=Xooo%&O%=O=%o%1:-&&-*---&-++++V;O&oooo",
"&&=&&&&O>:*@*&@-*--****@,%%%%%=:&=&&==%%,-*-=:*-,,---*-*,%O,,&%&",
"%%&=&&=O,:----+**-***-*&>=o%O%==&%%=%%=%<:*-**-&**-**&*-<=O%OO&=",
"%O&&&===<,*e8--**&******<;%&=%=&=%=;===%>,----:-*&----**<=&oXOOo",
"&zJzVCFzJJvSSCvFz,ckvSv<D1>1zVVSVVVVSSVVS1zFCFG1<>SCSSz<S1<,;OOo",
"%Zee53-8bb8883-9FJ888--8b9--888e8&&==&&=>=&=%&,=1S;&%%%%>=%%&OO&",
"O-3di33333333t538c35555gAd3bAu9u9&,=:*==&&=&=&++=<O&%=%%&OooO%O%",
"O-33uu3339033u33eh395995i0-id9999:&==+===*=&&&&+=<O&&=&==OO&OOOO",
"*935tt35t955pup39h35595355u95555i-&*&=*-*+&&O&+.&<&&=&=&OOO%%O&O",
"VFvSSSPPSSvzSLHe-l35395mZFHPPZMiAv-=*::zkkk<kz<;<1%=&O&,,<1><zVz",
"*&&&&O:,=&,JGbBA9559393093esi8s9u95-90MFHvkv,><>1--**&&:=%=S1*O&",
"&*&@**O*-*+eipit33533i933tbd59ud990i9353u539&O&+&*-&&&&*OOO,=+**",
"***&&&*--*&&9i99339539393uipt9Ai95ud99950bdi=O&*&&&&=&&&&&+>=*==",
"**+++++O*-++35395u533535333eZ9-3u5355535Ad3i-=O&&+&+&&&&O&&<-++*",
"==hhkqh,q,hkBHBl8eBBBBHBbBe,1BaeheMBBBFBbid9-=;,=;,k1<<<<,>21,,,",
"S2<>><,>>>><<<<11VvqlcBb,q,kSZkvVVvckkcvMiie8sZCSSz,,,,,,,<zz<><",
"K1OXoooX oXo%%%o1l333t7f33359u35Sl33355909999di5C,@*++++-*++&++&",
"<=%%%%%%%%%%&%%o>e59ip7ft9839909le009ii990000diuk:*--=*-,,+-,-**",
",=O%=%OO%;=&oo=%,e958t7u59955983bbii0009bB999ibiSh*=****:8*,--,=",
"1;=&%O%o%%oo%O%%>l3tppgt39993ui9sbdAd0udAiiiibb9C<----=*::*--:--",
"S>o%%=Oo%%O%%%%1SVzMHFHFk<ZFGFGFcCGLFSSGc<SFGFFzSC1CCCCzV>1<1Cz<",
"%=&%O%%&O=&=OO%=;;%oo%%%<S>%%%%;=%%%%O%=1S;=;%%=;;%%O%&%1S;%$O$%",
"=%;=oOOOoo&=&=&&O&&OOOOO=1%=%%%%%%%%;=&O=1&===&%OO&&O&&O;<o%%%%%",
"===%X%%%%oOOO&=%%%&%%O&%=>%==%%o%%%%=%O%=<%=%O%&%O%&%%&O=,O%%$O=",
"===oo%%==%%%%O&%%%%OOO&&&>o=%%%%O%%%%%%%=1&===&%%%OO%OO%=<%Ooo%%",
"%,S1VVS11SVFV1&=&&O%S=oo=<oOoo%Oo%%%oO%o;<=>>,;=><,>>><=><=;>>;o"
};
