/* XPM */
static char *_52b4c9fc9654cabe06dd7a3c2acf09bNq8ZieXvoXO07awV[] = {
/* columns rows colors chars-per-pixel */
"64 64 82 1 ",
"  c #37332F",
". c #38332F",
"X c #373635",
"o c #393634",
"O c #3C3936",
"+ c #3D3D3C",
"@ c #413E3C",
"# c #42403F",
"$ c #4A433D",
"% c #3F4040",
"& c #444444",
"* c #4A4743",
"= c #4D4945",
"- c #474748",
"; c #474848",
": c #4C4B4B",
"> c #504B46",
", c #524E4C",
"< c #54514E",
"1 c #59534E",
"2 c #4F4F50",
"3 c #4F5050",
"4 c #545453",
"5 c #595653",
"6 c #5C5956",
"7 c #575758",
"8 c #585758",
"9 c #575859",
"0 c #5C5B5B",
"q c #605B57",
"w c #615E5D",
"e c #63605F",
"r c #5F5F60",
"t c #5F6060",
"y c #656463",
"u c #676563",
"i c #646464",
"p c #676564",
"a c #696663",
"s c #696665",
"d c #6A6866",
"f c #6C6865",
"g c #666768",
"h c #676869",
"j c #686868",
"k c #6B6A69",
"l c #6D6B6A",
"z c #6E6C6A",
"x c #6C6C6C",
"c c #6C6C6D",
"v c #6F6D6C",
"b c #706C6A",
"n c #706F6F",
"m c #73706F",
"M c #74716F",
"N c #6F6F70",
"B c #706F70",
"V c #6F7071",
"C c #737271",
"Z c #757372",
"A c #777573",
"S c #747374",
"D c #747474",
"F c #767676",
"G c #787675",
"H c #797877",
"J c #777778",
"K c #787778",
"L c #777878",
"P c #787878",
"I c #7B7B7B",
"U c #7D7B7A",
"Y c #807F7E",
"T c #82807F",
"R c #7F7F80",
"E c #838180",
"W c #838384",
"Q c #888786",
"! c #878788",
"~ c #878889",
"^ c #8A8A8B",
"/ c #908F8E",
/* pixels */
":44409:#@@@#@OOOooO&;3-&#&:<4484,44:#@@@O&4:;@@-494:&@@@#@@#*:4:",
"4EAmPGMadawwwzbafawa4-6w50ww6<wnslellsedy8-yfw660kmnzaeww05888e4",
"0GCFBedzyvPze0nmnCCZ9&aypy60w0<0kywpvCvvFk&dkpCk94ysekllvvpyeks4",
"9mpnlylZvykmzynvywyGy+ss0wsyssw0sky0yvzdks&yvpvy64eyyyyyyCvpykv:",
"8ZwywkvzvFkzFCCknCyd0@lCkkpypkwwyyw00vpykp&wvky0y0kppkyywyvvvkk:",
"4UsdsesACynFCvFmCFkn9&sksvvywewywesypkskCp&wkvyyp0yykpkvv060ppF:",
"4UCCClCkvFPFvdCFFSvPt#dvvkkCpvk0ykvdyyelCy&wkvkskwypzvkppkkky8n4",
"4PnPCCvlvFPCvlCLFvlP0&sCvklvvlvpkpevp6lzvw&ekpvkkpkkeppdkvvkvyk9",
"0WnKnCzlvsnkvzCPJNdEg&mCkvCvvvkpsyk00ekylk&pkykvvykydlvCkkCCvvC0",
"4WWEEREPPERWPPEWWER^y;vPPPJSPFFFCnPPCFPPPg;0PPPPCPPCFPPPPFJPPPv4",
"-&&&&&&&&;:;&&&&--;;;:-;-&----;::;&-------:--------;:2;---&&---;",
"Fvve65>,,::464wpvyvCVvvsy0<===#::>,==,0kw650pvlw,==*:::>=<6wvCFF",
"YEAbffafbs&kGvFCswwsZPPvsvvvsyy-:bknCvsCPPPFvnfsldlm9&bFZnPPZZln",
"sFymnvCvCp+lCpkwwe<40esvkpyvlvv-:npCkky9eCy68wddvvCF0&AFvFCsywss",
"kCkCCnFnkp+szkpspkp960ynvkvvvvl-;nNCSvpwe6plkyynCFCFr+GFFCsyw0yC",
"NpnkFZvZvp+pvkklpdkp0ypkCvvvmvk-;GkvkpvvykvCvlvnppsm0&PSCplzCCdk",
"yyFkwlmFZk+kFke6eysk0440kyyCClv-;AvpyyCpkN0wsvlessdny&UFpaPPCvly",
"ldvlesPPFk+kv6wlskpvvy8,5vkpsls-:PvskpCvkskde0kkvCCC0&PvpkAFFFCk",
"zydnnykPJv&kvywyyyyw0ys96wlyppv-:CvNzvkv6epvsysklkvC9&GylswszFFF",
"UFvYPWnnWE&CFsCCFvyyksZClweGFPP:4PPPPPSnfPKCPPPFPFZEp&WYFHPPPWPP",
"CFNFFFCCSp:9pwvVNvvvvvNNvvyekCg34vCCVCvkSSCNNvNCVCVC7:yPFFFFFFFS",
";@++++++O+;---&+++++;:-&&&--;;-:;---------:-&&+OO+&+&&+XXOOXXO+;",
";6esfyww666lCme15,51*:7w<45pvFvskvCCFCvvse:9mmnylmnzeq1555qeea5-",
",ZvvZCkklvkvkllnnvCF9-yyvkp0p0dvvpykpyesCC-CAwPFzldzlAPJJzenFzU;",
"4FlkkCCFkyppvvlCvkvn9&y4ykpryyvvppyyskkypF-nEvssysylzlCACCCvdkG:",
"4lzNeCnCvCy0skCvkCvn4&sy9y00ygpsvk0pppsykv&CEvdFFZPzFPFGPPFCFks;",
":w0pNvnCFvsp0sZCFCCP0&svpy000rsvk0wyyykvpk&CUznzlnFPCvlnsylndzy-",
":Fp<wsnvCCvyw9kFJCFP0&zvppyy04ywwyppeppkks-zfdmlmnZPzeeepnvFZFC-",
":dp0wyddCCSkkpwwwdlRp&lpyspyy066dvkvkpy0ps&vPClZPPzdCznzvGCCFPF;",
":bvpw560CFCvFvpwwyevp-vpvkkp0wwyyvkkgpey8e&ZWlkFJvklmkCFnmFFPPF;",
"<YPPFnkPmPPPPPZUPPPWp;FvCFLPvkvCCkCFFvFZCd-C/E~~WWEWEPWWWEWWW~W:",
":4444447447944444499:24049444499r4:44:499::;9999999900944444994;",
"@ooo .o#4-;;44444;--*&##:;4444::;:4494,&*::::&+@OoXX&;++@@OoXOO@",
"fewffbdvEF&kPPPley0wydsykJZFZmZ44ECJZzCzlyykZdlzsdsn0-GWPGUZMGlf",
"PPPnnvvvvP&ls50wyydkkvSNkvCksvP44PNkssywpsvkvvCvzJCFp&WPZzZPPFUU",
"UFFCZClFPF+zzwyyyvvsplkvvss00yC44Ke0dskwsCvkkmvvvkCFp&Psae06pZPG",
"UPPPHFCvnk&pnkvvvpvvkvkvvseypkz:;lysyskskvkvlFvCFNCvk&Geylny6wfG",
"nHPPFJFklp+wnkysdpkCkvkkpsppspk4:sldyvnvvvpkvCFFC04s0&PvmCFkk0ys",
"yCPPPFnvGv+ydwkpyvkvvkkkpykyw0w;4mplzklCkvvpe0pksyyl4&Plznznkydd",
"wdUPFPFCPv+yCpzkkNkkvpkwwp8ypkv-4GsylFCvVyywpy84ekkF0@blZPAnlFms",
"FpsAEPFPEF+sFkvspVCVvdddvvyyvlL24nyypvCvysvCkwy0wmzFy+AvZPGGvCPU",
"WEPPW^^W^C-yPPPPLFCnydCmPPPPPPP4,ZPRPFPPPLPPFPPPvPPR0-ZWEWEWWWWW",
";-;-&&&&&-4:;------&-:-&&&&-&&-;;-&&&;--&;:;-;;;-----:&&&&&&&&-;",
":<4wkkpvvp000400ykkv9;pCy0<,<55>=$======,::4y0<,,848650,664w0<<:",
"<p0p0yypnzvvvZvCCSplk&~QGnGmZfzAZZMnPAHZMm&kAknmCkynPvvFZssyAFC,",
"<Cpyyw044ekvvCvvky0ww-CfzknCvzAlCPPPLPPPPC%klssvCpkkpvvvlkky0sF4",
",nvkkkk8659ywy60wpdFk-FzZZdZFnFFlCPZklkFUJ+vFvCvkkkkkpkFvFvkydF4",
"4npvkke00ye<40y680wld&UCAPZlZZPPPClmFle6nP&kCkkywkvveypvvsNSCkG9",
"4Ckvkyypyyye07ssypwsy&WFmFPCnGPPPllZZmCzvP&lm0edsspdvkke0w880pG9",
"9FCkwzvkk00kkpeey0pCp&UZAnnCylkpszFzZPFzsP&plwwknvkvvgpewyy84,s6",
"4vvkwpkvvp56yyw000pvp-ECCCmldvsvCCmPPPFFCE&ynkpywsdy9e0wy0kk04y4",
"4syAvvFCCCvlnkCvsZvCp-^EHUPWEPEEWWWWPY~!P~-kECCCnCnFkdmZCvZFFln4",
"4ppyvvpvvvvvvkvvvvvk4:yPCFFFFFFCFPPSCCJPC8:9vNNNCCVVp7lCvvvvvCh2",
";------&#-:-+++++++&:;@OXXXXoo+;;+OOO+++&-:-&++++++&;:;-@&&&&&&;",
"dewyCPAda,;<w1,166eFWM6qq1111<<;:66550dyyvnaya611<164:kmk0e55w86",
"lpyyyyCvns+aGkCkvCvvCzzCFFZGPFv-,ANFJvkskpSFvCzkkCyk0-Pvkysksypk",
"vCvVv0llCk+sndPvdvywmvPFFzCFFFS&4ZvSCpvvkydCFCnCvlslr&FCsklkpvky",
"ddyyyyw0pv+wGCdkvkpykzACCAFPPLP-,FkNpyppkypCzvdsmzkv0;yknCCvpCCp",
"ysks0yyssk&eZlllvdk0yZFFFPJFFPP-<GCkyvkzvpywnzdvFFCFy-y6yBFCvCCs",
"CFdpy0sklv&wZCvCvdzy6vPPvksy6en::nypvFFC0<,4ylFFCCSJy-d4weyFFCkd",
"Cskkpppszv&eUFCPFCkvy6sFdmvlldv-:Zy0ydy680w65yCFFCCPp&l0wy,4vCev",
"vssvkksdkp&wMvnFCCFplp0kFFnFFAP;,Hzd00ywwks00pwvCCyky&np9yy08wdC",
"FFCPPFGPPN&yWPPFZFERPPPCPYE~WW~24WPPPGFPPPFPJPJyAPPPy;CPSASCsydF",
"4090094092::974797490tr009400t9::90999944900004:<000:4409999944:"
};
