/* XPM */
static char *b76aaff2c6444161b6dae2dd30beaf1eFllmvzunXfZbFivn[] = {
/* columns rows colors chars-per-pixel */
"64 64 74 1 ",
"  c #473F3A",
". c #493F39",
"X c #47403B",
"o c #4B433E",
"O c #52453E",
"+ c #59473E",
"@ c #5C483F",
"# c #4D4641",
"$ c #4F4844",
"% c #524741",
"& c #594740",
"* c #544943",
"= c #5C4B44",
"- c #544E49",
"; c #5C4F48",
": c #56514C",
"> c #5C524C",
", c #5C5651",
"< c #5E5954",
"1 c #5E5D59",
"2 c #614E45",
"3 c #604F48",
"4 c #635047",
"5 c #64524A",
"6 c #68544B",
"7 c #6B544B",
"8 c #69564D",
"9 c #69574F",
"0 c #6D564C",
"q c #6C574F",
"w c #6D584F",
"e c #70584F",
"r c #635750",
"t c #605852",
"y c #635B55",
"u c #665B55",
"i c #635D57",
"p c #675C55",
"a c #6A5A52",
"s c #6E5950",
"d c #6B5C54",
"f c #6C5D55",
"g c #625E5A",
"h c #675F5A",
"j c #6B5F58",
"k c #735E53",
"l c #62605B",
"z c #64605B",
"x c #63625E",
"c c #66635E",
"v c #65645F",
"b c #67645F",
"n c #68615B",
"m c #6B625C",
"M c #6B635D",
"N c #6C625C",
"B c #71645D",
"V c #676661",
"C c #686763",
"Z c #6F6761",
"A c #6C6863",
"S c #6B6965",
"D c #6C6B66",
"F c #6D6C67",
"G c #6F6E69",
"H c #706A65",
"J c #716B66",
"K c #716C67",
"L c #726E6A",
"P c #74716C",
"I c #7A736D",
"U c #797773",
"Y c #7B7874",
"T c #7E7C76",
/* pixels */
"p5====&52+==24==2fa===uKJJJJKKv,>>hLDKLg>::>,>yruvz>>>,>>>>,LYAJ",
"5424224622222225222222===554pGu===555=>;&&&&&=2=5sa=&==&=2&&mA24",
"424==2562+226245=2662===55w65v;=2588=45582===5===5228====5555u55",
"22222266052252222225522=w05@5x>&&==55=2854===555====5====42==p54",
"5=22246662225554222222225062ac>=&====2==5====&=5====555====5>558",
"822222246222252522025===20225l;O=&====&&=&==2=8====&===2==22;p65",
"252=2224e42222222282226=22225g====&==5==&=&=255===@&=&282====p05",
"2452222462222222222==24=2=55=y2===55=25O&&&==2&======&85====>u52",
"52252222222222264422222222268t&========@+O&===&====2&=5=5===5u45",
"=*=&=8a>%**O**=>=**&**=%O**=-:==552==25=&&&==&=&4===85==2=&=>>;=",
"VVVvctycCVxxxcDFVccDvxGV<<vVScimhhhZZmnzn<>,i<yhmhhhmZmt->htzLCC",
"ppjp52&5jpppuupppujNpupPTc,yy<-$##o$*-*#X#<LPD<$#**$#%-<gy=&8NjN",
"=&==2=@=+==+O++++=++++@5C-Xooooo######*oooo*#o-*#**-%.o-x;=2=+@=",
"2==22==2=+====&&==&25==>V:-*#o##**#$$#######o#o###o*$#o-x;==2===",
"2===25====+&&2==+==24&&>g*#-##-*#$#######o##########*##$g>==2&==",
"=====46=&=2=+2@+===255=5C-o#*##*####%#oo#ooo$###oo###oX*g>====55",
"======52=&====+&56566555V:###o#**######-#oo#-%#*oo#*#oX*x>&==555",
"5==&===&====25=&=658s62>x-oo#oo##$*###*-#oo#-*#*######o$x5===2=2",
"2==&=5252=5=282==25585=;c-oo$#o*-####oo##oooo*--#*####o*V54=5==2",
"==&&=2542++===+52222===;1*o####%%#*oo*$oXoo#oo####o#*oo*c==2=&&=",
"::::>>>r58uar8aaa8ppuu5,c:-*$$#o#####*%*$oo##oo#o#o###*:<>5>::::",
"PLDLLKDv>tpu>,tputt>>>>nPh><VSCxggxV<yygc,,VVVDSVVxccgyjh,>mLKKL",
"Ij=555==25=+==552==&+&&===&&uNjhPPnN8===455fNBmBjjpjpa022=264550",
"p82=&&==8==&=&2554=====&&=3=&O&&<z42452220522222222@=6422265==26",
"u8==&&==2=&&&&==2==&======55&==&<h82445446w5552522852=542242=225",
"r>=&&=====&&===========2=252=2==gg226524226855452242224222222468",
"u5==&====2=28==&&=&=5====&===22=i<22222=24244652554222542242=256",
"y;=4====2=2545&&=5&2525=&&==&&5=<<264542555425624522224222422=25",
"<>&5===2=&=55=&&282552===&====6=<<268658552526824522===222==2222",
"<,55==24===24=&&225882=24==&&=2=<<468555554225555645422682222222",
"<<58554=&&&=5=&=2&=52===+5=O&=&=<<22255244426622462==2=252==2422",
"GGhjpmy,::>:::,<,-:,,:>::,,::>r;<l5fBfpdfa558t,:::-:>:>:>::>nmu,",
"yy-%#o*hLCDDCCFLLPFCDDLLJLDDC,><PL<ty,>,,,,,>cLDDPGSFGGDDDD,-#o%",
"%*--%%OO*%%-*%%%-AC=%*-****-*%O=>>*=>*%*O*&=&===;Cc*%%*%%%-O*OOo",
"*-**%%O--==%%%ooOg<*=O=OOO%=*==u>=5>;====*==**%;=<<O%%%-%%--=%oO",
"-*%%*-%%--*=%%%*-cm*==;%*O%%%*&55==;>-=-**-*-**==g<%-%-%*%%=-%%%",
"%oO;;=--%%%-%%%*%cm%O=*O%%%%%***=*O*8>=**-==**-==z<*-%%%**%OOO-o",
"-;%%*%*%**%O%%%%%:<**=*O%%oO*-****%*5>=***===*=O=Cg%%%%*%*%=%%%%",
"*=*%*%-%%*-%%%-%o:,%***OOOO%%%-=*=>->=O***=**=*==mz-%%%o*O*=#ooo",
"**=*%%%O-*%o%oo*%<<%%*%%O%*%%%=5*=--==*=**--*=*=;5y**%***OO>>%%-",
"%%*-**-%%%=-*-o%O1<**=*%O***%*=;=*==--=*=**=**=%*-y%%%%-*%%%OO%=",
"oo#-%%>-#%%;=*-%%,,##oooo#%%*%%%>*%>==-**-*%%%=-*-,**-%%-o%oXooo",
"VSC,,<cSDLgyhiihgDGVCVVvCVxVVVCVgVg<<hgx<,cSVCg<<<c<hhiyy,lxccx1",
"fjIL:*-<cm,**##*:yyy<<<gh<,<yggg<<ADh5>585NBNNd5=5r52===5=appppj",
"=@5h%#ooooooo%##ooooooo*-%X**#o#o >V5485545222242444482462==2==2",
"245:**###**##*o#*#######**o*-###*--x5268558545222544585862252222",
"545:#%o#####-*-##ooo###o#o#ooo##*%-x55505465254&2565850542242242",
"545>o#>:o##*---#oo#oo#o###*--%#--%:c566kw55555226655525s22242224",
"445:oo*-*#$#*---#o##o$oo##-*-#*%*#-g566sk65854545665525w52224225",
"255:o# #*#o##**#ooooo%#oo#-*o#*-$#:S5255854852555505425622522224",
"545:oo#$%#o##%##oo##o#o%o#**%#-*$o:S554450885=455555555545552455",
"225:#ooX%*ooooooo%#oXoO%ooooo# o#o-x5655kw40882554555455225422=4",
"p8,<:**--,:--<:,:*#*,,5-:::-:<-::-,g>>==5>>=>>==-==>aff85affNfpa",
"u,iLc,yDDDJm,tt,,gg<,,uuADZDLPJDc,cUGcCCVCDVSGCCVl1<,>>,zt,>tt>>",
"58==&&=&@=&=22=&&,c-O&@2***-==*==**,pphphppphmnphPL5+@+=6=+O&O&&",
"===&==&&====2===&,,%==@2&*%O*******%O%*OOOOOO&&OOgg=5=&=55&555==",
"&&&=5=&&=552&&5==>,%*=22***%%****;=====*;>***=;=>Vi=====58=5458=",
"==52=&=&==&&=&===<,*==2&%**OO***&==>=*%=>&&=*==*=Cz&;==&55==2555",
"==*===&&=&&=&=&==y<%;=2&****===>-===*%*;**==**=-%z<====&5=&+&&==",
"====&&==&5==&&===<,OO*****===&=5==-==*-=&*==>=-=%gi=&====&=&&&&=",
"5255&&&&&&=5=3==&y<O*OO%*&==-*******5=-**=====-*Ogc&&==&======&=",
"55==+&&==%&&&=5&&<<%%%****&==**%*-**==%**===*%*-O>y&&&=&&==&=&&5",
"556&&==5=&&&====&<,%%O==O%%=*O*-O%**%*%*%**===***;,&&&&=&&=&=*&=",
",mJphnmupmnmmvmmySV,mp-------$:-=--:---*;5>5>ur>>:,=5ru5ur8>>:::"
};
