/* XPM */
static char *_fa9d73a780c400882cea62f0c5d882d90Qvyei65u6NpHLY[] = {
/* columns rows colors chars-per-pixel */
"64 64 221 2 ",
"   c #26231C",
".  c #2B251C",
"X  c #2E291E",
"o  c #31281D",
"O  c #2A2721",
"+  c #2D2B24",
"@  c #2D2F29",
"#  c #342D24",
"$  c #322F2A",
"%  c #2F3128",
"&  c #343226",
"*  c #3A3226",
"=  c #34332B",
"-  c #3B352C",
";  c #35392B",
":  c #3C3A2D",
">  c #2E3132",
",  c #333532",
"<  c #393631",
"1  c #363A35",
"2  c #3C3B33",
"3  c #333638",
"4  c #363A3C",
"5  c #3B3D3B",
"6  c #40372B",
"7  c #413A2E",
"8  c #433D34",
"9  c #4A3F32",
"0  c #433F39",
"q  c #39452D",
"w  c #3C4233",
"e  c #3E4937",
"r  c #3C423C",
"t  c #434334",
"y  c #4A4236",
"u  c #454935",
"i  c #44423B",
"p  c #4B453C",
"a  c #454A3D",
"s  c #4D483E",
"d  c #51473B",
"f  c #52493E",
"g  c #584C3E",
"h  c #46513A",
"j  c #3A3E41",
"k  c #3D4243",
"l  c #3E4449",
"z  c #444542",
"x  c #4B4742",
"c  c #444D44",
"v  c #4D4A43",
"b  c #41464A",
"n  c #454A4C",
"m  c #4D4C4A",
"M  c #534D44",
"N  c #584F45",
"B  c #524E4B",
"V  c #4D5443",
"C  c #4A5845",
"Z  c #4B534C",
"A  c #565146",
"S  c #595146",
"D  c #55514D",
"F  c #5B544C",
"G  c #525C49",
"H  c #5C5B4D",
"J  c #464B52",
"K  c #4A4E53",
"L  c #475055",
"P  c #4D5154",
"I  c #4E535A",
"U  c #555352",
"Y  c #5A5653",
"T  c #525A54",
"R  c #5D5955",
"E  c #53565A",
"W  c #54595D",
"Q  c #5D5B5B",
"!  c #625646",
"~  c #60564A",
"^  c #63594D",
"/  c #6A5D4D",
"(  c #635C54",
")  c #695F53",
"_  c #615E5B",
"`  c #59684C",
"'  c #596058",
"]  c #6B6155",
"[  c #666759",
"{  c #64615D",
"}  c #6B645C",
"|  c #71665B",
" . c #76695A",
".. c #73695D",
"X. c #555B62",
"o. c #545B64",
"O. c #5B5E62",
"+. c #605F60",
"@. c #5C6165",
"#. c #5B646B",
"$. c #5D646B",
"%. c #5C6573",
"&. c #646363",
"*. c #6A6663",
"=. c #6D6965",
"-. c #64666A",
";. c #686768",
":. c #65696C",
">. c #6C6B6B",
",. c #736C64",
"<. c #7A6E62",
"1. c #736E6A",
"2. c #786F6A",
"3. c #7C7164",
"4. c #75706C",
"5. c #7B736C",
"6. c #646B73",
"7. c #656D77",
"8. c #6B6E73",
"9. c #716F70",
"0. c #6D7075",
"q. c #66707A",
"w. c #6C737C",
"e. c #737374",
"r. c #7A7673",
"t. c #7D7975",
"y. c #73767B",
"u. c #797778",
"i. c #75787D",
"p. c #7B7B7C",
"a. c #82776B",
"s. c #857768",
"d. c #83796D",
"f. c #807770",
"g. c #837B74",
"h. c #887E73",
"j. c #827E7C",
"k. c #8C8175",
"l. c #86817D",
"z. c #8A827C",
"x. c #968877",
"c. c #91867C",
"v. c #95897E",
"b. c #6F7884",
"n. c #737A83",
"m. c #747B85",
"M. c #7A7D83",
"N. c #767E8A",
"B. c #7C8086",
"V. c #76808C",
"C. c #7C828C",
"Z. c #7C8692",
"A. c #7B8797",
"S. c #7D8895",
"D. c #848384",
"F. c #8A8583",
"G. c #8C8886",
"H. c #82858B",
"J. c #86898E",
"K. c #8C8A8B",
"L. c #938B84",
"P. c #998E83",
"I. c #938E8B",
"U. c #999088",
"Y. c #9B938C",
"T. c #818691",
"R. c #838A93",
"E. c #8B8D93",
"W. c #838D9A",
"Q. c #908F91",
"!. c #8E9195",
"~. c #87909D",
"^. c #8B929C",
"/. c #949293",
"(. c #9B9693",
"). c #9D9896",
"_. c #92959C",
"`. c #99979A",
"'. c #9B9A9C",
"]. c #A3978A",
"[. c #A5998E",
"{. c #A39A93",
"}. c #A39D9B",
"|. c #AAA29B",
" X c #B5A99D",
".X c #8591A2",
"XX c #8C95A2",
"oX c #8D97A5",
"OX c #8D9BAB",
"+X c #9096A0",
"@X c #959AA4",
"#X c #9A9DA3",
"$X c #939DAB",
"%X c #999FA9",
"&X c #A19FA2",
"*X c #9DA2AC",
"=X c #92A0B2",
"-X c #9DA5B3",
";X c #9DAABB",
":X c #A3A2A4",
">X c #A3A5AB",
",X c #ABA8A9",
"<X c #B4AEA9",
"1X c #B8B1AD",
"2X c #A5AAB4",
"3X c #ADAEB4",
"4X c #A2ACBA",
"5X c #B2AFB1",
"6X c #ACB1BC",
"7X c #B8B6B8",
"8X c #C2BBB6",
"9X c #9DABC0",
"0X c #A4B1C4",
"qX c #ABB5C4",
"wX c #A9B7CB",
"eX c #AFBACB",
"rX c #B2B8C3",
"tX c #BCC1CD",
"yX c #B9C2D1",
"uX c #C8C6C8",
"iX c #C1C9D9",
/* pixels */
"n.R g ) ) M.G.'.^.6.o.o.O.-.E o.W +.%.c q U I K E I W O.o.E I 6.y.y.H.m.X.+.y.r.1.-.$.S.I n $.I E M.T i ) M &.J.$.@.$.W I @.o.X.",
"^.U.Y.P.].}.&X{.uX.XT.M.~.R.C.oXN.T.N.4 s y.w.8.-.6.0.6.w.7.y.y.2X@X:XW.-.-.6.J.E.C.M.T.q.7.w.8.C.@X:.x H 5.H.M..XOXT.M.M.T.R.+X",
"-.^.2X*X#XI.M.z.f.e.M.e.0.u.y.p.>.;.y.o.v G.-.:.W ;.6.+.+.Q +.+.H.9.*.j.W -.>.H.M.-.W U -.R &.O.n.w.E k D c.D.M.E.i.0.:.&.;.{ *.",
"=.N.#X6XE.z.y.2.g.,._ R Q R M Y ( *.n.b 0 ( D ,.1.>.*.Y U Y U B _ e.j.9.U ( +.*.=.D Q 1.Q B Q U Y R %.j m 5.l.=.D ) Q _ Q m Q R ",
"R e.C.E.^.D.K.~.p._ D _ R E ~ ( ,.d.-.> 8 =.&.e.,.,.*.R D _ B U B ;.u.6.+.Y U U Q &.] ! ( R { Z m &.7.j z ,.r.=.Y ~ _ U Q Q R e.",
"R &.b.p.y.N._ B F ( B B _ 6.M.J.J.p.U 3 x ( R Q +.1.| } Y B U Y B B Q Y _ D W +.Q _ ,.R } 5.j.R Y U I 3 0 j.r.1.6.u.,.&.R U R Q ",
"=.2.{ D _ e.B x g.( Y *.1.B ( 0.J.2.E 4 x *._ R -.e.2.G.y.m 0 m B Q E ( Y m _ ;.&.0.M./.oX/.u.D ;.@.n w M {.5.] { H.=.=.Q =.&.X.",
"9.1.~ ( { _ Q =.<.=.a.j.B x ) *.F U O.4 0 1.*.D Y 9.H.>.Y R Q +.>.+.U B Y D x B Y U U { :.&.Q Q { *.b m H ^ U.k.] <._ _ _ R ] 8.",
"*.*.} { { ( M 0.c.c.[.h.a.L.s.3.s S Q 4 p *.F i 8 M p p p M M } ( 0 x 9 M B x 0 p 8 0 Y R Y 4.5. .1.m z A o ^ d.c.P.} S y M p S ",
"p ) d p M ( D : x f y t S y p M 2 & $ w V 9 - & - # $ & * = O y M < 7 < = * 8 f x 9 - S { 8 ^ x s p = V G M y M M ( s ; # * $ * ",
"s y % ; q ; 1 : & u t y y f S D 8 + 1 a C w a ; = 2 < 1 = 1 , 8 p = 5 = ; = : B 8 - - - i ; w ; M 2 V C ` [ d / S w & & & ; : 2 ",
"v U #.@.O.U K >.x 8.Q Q x * y H T #.q.O.m C @.:.W W @.:.b.6.X.O.b.Z.OXO.7.$.i.e.,.=.,.( 8.Z.%.O.i.j.>.%.G u d y M R D q.X.w._ 8 ",
"W.i.W.N.R.y.w.0.r.M.E.E.M._ h.<.c.R.oXN.o.i ( i.0.-.-.y.!.M.-.B.J.V.>.w.7.;.H.r.3.f.z.k.F.(.i.-.y.p.u.7.n y D 4.F.!.(.H.w.R.y.D.",
"*.@.&.w.y.:.O.&.&.+.8.&.>.`.{.z.Q.>.;.0.$.< +.g.Q B U Y +._ U >.D B m Q Q R =.p.1.1.z.f.3.3.5.e.{ m { -.j = ,.`.@Xj.h.3.8.>.8.>.",
"B U *._ 5.>.{ -.+.=.E -.;.E.W.p.R U Q O.J 1 ( _ O.U m m z m Q &.Q &.{ ] Q m 8._ 3.5.a. .! ! / 3.=.U =.<.E 2 *.=.R 8.p.p.l.&.=.Q ",
"Q { &.i.p.e.=.m B +._ 0.E./.Q D _ Q U q.L = R &.+.U R Y v _ 1._ ;.} ( } ,.M D y.H.G.L.G.c.3.3.3.=.&.e.G.,.R 2Xj._ R >.=.>._ Q U ",
"D *.~ R Y Q U _ R U Q &.} } { M F { -.6.n i I.u.=.R _ Q U ;.u.1.Q u.4.>.r.Q m &.p.R.'.).'.}.L.K.&.B p.D.v } <Xu.( F ' A S R R D ",
"p ( _ _ S =.Q U &.U :.&.] ] } R | =.Q %., z l.4.*.1.Y D B 8.u.*.Q J.H.M.;.D U n.;X9X-X4X0X4X!.>.D B R J.2 ,.k.! ^ / | ( ! ] Q R ",
"0.*.R 6.y.D.O.v B Y N >.,.<.} | 3.1.&.-.b 2 F.j.&.D.U U &.D _ e.&.&.{ v D R D e.u.B.J.@X'.l.} U E x _ E.5 F U.| 3.s.k.k.c.5.u.D ",
"&.d.( 0 D p S _ M ( ( } 2.<.a.a.h.z.R U 5 c | ,.{ g.D x D M p } ,.R Y u.G.>.2 A i p l.!.3.t.Y.K.Y 8 F ) 7 p 3X'.P.v.x.k.v.c.,.M ",
"2. .=.x . . 6 # x ) .... .h.Y.v.a.] - X 1 u u & * 7 8 # X . & g M - 8 ( A : & # = % # t - s s R 8 + M s ^ ) 5.7X|.].{.[.[. XU.g ",
"u 2 i E 4 , @.W 8 8 f F ~ ~ 1.~ v D W n c c ' Z K $.:.n k P r - y t c 1 3 5 T m r z n > k c 1 r Z n 8 g ^ H S } k.=.=.Y ] 3.] w ",
"' 4.2Xq.b.C.#X@Xg.D.L.{.h.].c.h.c.c.|.$Xb.N.A.b._.*XqX@X7.C.b.v t 8.^.N.S.Z.W.m.V.b.S.~.=Xn.V.C.0.~.V.Q _ M M D } S F y D i T :.",
"Q 5._ &.*.} | ] | a.<.d.s.L.}.}.}.}.:XC.p.e.M.0.y.g.3.d.6.&.Z.K p F.J.T.C.E.C.y.H.y.M.H.@XZ.R.B.M.M.;X0X4X,X8X5X1X7X8XuX1X7X*X%.",
"T *.~ :.S.9.=.l.3. .3.s.[.<X7X6X>XqXp.Q &.( <.| Q *.,.3.;.U u.j i 5.2.( Q _ _ =.&.;.i.y.p.i.y.*.;.0.e.>.W.~.@X/.&XY.|.<X(.}.D.J ",
"r ( ,.:.C.V.@X4X*X^.@X'.>XrX2X3XH.8.U =.M.^.J.L.&.6.J.H.Q B z 3 i k.5.Y Q R Y Y R &.Q &.{ 9.R { &.R _ R e.W.;X9X;X4X>X3X:X(.R k ",
"0 r.u.B { S.^.2X-X;X@X@X%X0X>X( i B D Y u.i.,.2._ } ,.R Y E n 4 i 5.r.=.Y D &.Y &.Q Y *.R R Q &.{ ( S F Y u.2.n..XW.~.'.E._.o.J ",
"i 2.~ g F *.p.j.;.B.0.D.E.B._ x D R U Q &.-.M.r.r.u.e.R Q 0.E 3 r 1.F.{ D D Y _ M =.=.D &.&.O.{ ' ] 2.1.1.=.{ D R U y.$XM.m 0.-.",
"M y <.] ^ ] z.Q _ ;.>.Y D Y B Y U _ ,.Q m Q ,.H.t.Y _ B S 9.7.4 0 ,.<.M M d 9 d f ! y ^ 5._ ;.S e.l.g.D.G.t.=._ B R =.;.Y =.#XQ ",
"H =.qXtX7X7X/.F F M x x D x M D =.<.f.{ B s Y R M R M x x M E j x g.,.-.F ^ ^ ( / | ,.5.} F 7.R.2.p.j.I.).{ D _ *.{ ( B A :X_.n ",
"[ H D.B.D.H.=.i 8 i y 8 : # * y f.<.) ( y 0 9 * * 0 7 7 7 - * , i F ) D.j.c.v.].s.P.1X`.G.^ 8 p.5X&X{.].N y M 8 ! ^ N ,.3XY.8 5 ",
"h t s : i + 8 v < 2 & & $     # o   * - $ + $ $ O O $ $ $ $ $ V q X # $ 0 0 8 9 F <.( - $ + # x D v 0 2 < = 2   O # = + - & = h ",
"6.X.+XR.0X%XM.M ' G ;.w.6.#.7.0.m.N.-.-.6.O.o.-.b.X.7.8.o.X.X.O.#.N.o.J o.O.8.i y M x C.K K 0.M.T.p.C.D.K.H.'.m.J w.@.K o.X.7.w.",
"OXy.R.H.~.@X6XW.y R *X*X=X~.2X5X2XuX2XN.T.W.T.%X~.N.~.OXb.N.N.W.@XiX-X^..X=X4XoX8 p /.^.8.M.^.#XK.z.U.U.I.I.}.#X:.W.W.C.W.S.C.oX",
"7.&.u.@.U -.M.T.x R g.r.1.$.e.t.4.'.K.y.m.y.9.N.:.y.p.8.;.9.>.>.&.p.H.1.l.T.:.0.x x ,Xi.&.&.&.N.oXoX+XoX%X@XH.8.Q O._ O.&.0.9.M.",
":.O.Q B R &.B 3 % ] =.p.=.Q p.D.K.l.+.*.+.+.R Y 1.;.>.E _ _ Y Q Q =.+.{ | { $.n < F h.Q Q R B v D y.y.t.p.;.B _ p.&._ Q D _ &.>.",
">.&.Q B { { { n.4 H l.e.=.O.M.y.K.r.>.+.+.+._ *.*._ R _ _ B _ U B U +.,.1.3.=.K @ d 2.,.m U R ' _ 8.y.p.=.U U ,.u.Q M Q Q m ' { ",
"R D _ _ { M.e.&.1 ;.l.4.{ >.Q } 5._ _ D B +.D +.+._ R _ Y R Q Q Y R -.8.g.}.D.b 4 F { ( Q U B { O.Y U =.;.Q =.5.g.+.&.4.&.u._ D ",
"_ ) _ w.M.=.T b = { g.{ p S { ] <.+.( Y B ( ( +.^ +._ +.E Q D v _ ;.R -.D.`.>.J , D ,.*._ ( R Y R ( B { :.{ 5.p.1.Q :.>.N.r.+.&.",
"p.(.t.H.p.x -.P 4 ( j.p.p.1.1.r.`.-.Y _ _ ( ( Y ;.g.( B _ Q B R R _ R n.J.D.+.O.4 D r.>._ _ 1.=.*.D B F { >.p.F.F.&.R =.{ 5.a.g.",
"z.[ ~  .,.&.5.P , [ U.K.e.'.E.u.>.F =.M 8 F M.g.{ f ( =.=.S 0 M M d x *.&.d { E 1 [ ) f *.r.3.<.k.l.5.{ S { !.K.L.s ( >.] ..| <.",
"x 8 p R p y u x a a y t - # 6 & * 7 7 $ $ - y ( 8 & f F ^ f # y p # * O - 8 y : w s 9 * 9 s M d i D ^ *.i # s f B   8 D 2 d M x ",
"^ | 3.5.y i i t C h - + = = = % = <     + @ + & & % X : ; X ; % @ = $ + # O + 2 w c 5 z ; X S } t # 7 s a r + ' m 1 z C H S g F ",
"d k.} F 8 Z 7.@.b.B.0.n.7.O.I o.o.O.O.y.$.o.@.n.X.$.$.w w :.w.q.7.7.6.0.W.~.b..XV.V.q.b.^.>XE./.p.F.^.Z.V.7.Z.OXn.=XB.u ) } d y ",
"D R v ;.-.u.'.~.W.R.R._.XXT.M.'.M.n.N.'.!.b.H._.N.#XW.l 0 F.E.R.Z.H.E.M.J.`.y._.^.W.T.H.!.4XqXeX*X2XXXM.C.W.@X$XC.;XwXD d ^ &.U ",
"%XeX4X*XH.0.#X>.n.&.:.&.;.M.p.j.2.Y { 7.e.1.M.e.6.y.Q j 2 1.5.-.;.{ *.) |  .=.y.0.>.8.>.6.>.u.r.0.0.&._ <.4.=.5.i.i.w.n 7 r.2X=X",
"{ u.e.Q { &.U F R U Y F Y R =.*.F { 5._ -.( Q 1.Y R O.j 2 2.e.&.&.R Y ] ] ^ 2.Q ' *.=._ =.&.Q N F R s ) ] ] 5.5.| U Q > a g.g.=.",
"d S ( S } Y D Y R Y Y U x y f S e.(  ._ Q *.Q &.*.Q $.4 < g.5.{ Y Q r.p.J.M.r.B U _ U { _ _ -.7.} ) ] ] a.h.g.D.r.:.I l i g.^ 9 ",
"/ | / / 2.R R p R p M Q ( { } ] =.*.a.2._ R +.D B Y X.b 0 z.t.R Q 8.H.p.2.{ &.U D { ' 4.4.i.C.7.y.D.L.L.P.].g.c.F.M.@.J m Q.y.! ",
"F.{.t.g.d.1.Q Q Q D ] &.y.4.r.P.h.G.J.9.R +.Y 1.-.O.U l r r.r.D R _ *.a.( <.,.U Y >.0.B.5.R s S ] ] f.z.U.(.l.'.D.>.#.4 5 j.oXJ.",
"/.U.L.z.d.{ Y F &.:.5._ K.H.Q.>X&X`.u.*.+.B ( _ ,.R K b 8 g.r.R x Q 1.f.3.5.=.Y ;.H f ..:.&.B.j.I.(.,X7X7X,X7X6X0.>.@.4 i g.1./.",
"a.d.d. .3.] ] S M ( 5. .s.a.g.L.:Xc.| v p M ~ 1.Q M x j * F <._ 8 +.P.P.U.}.S ( 1.R.F.c.D.#X>X-X:X:X,X|.{.Y.v.} x ~ D 1 s  .t.3.",
"{.v.v.].x.x.k./ f.P.h.h.a.g. . .( 7 6 # # # 6 F < o . + q t - 8 . 8 8 # . t 7 7 M ^ p x p y D D t 7 8 ( y 7 f y i A A c ` 7 F k.",
"S y S y 9 d t : 8 0 +.:.6.6.O.n 4 j > 0 4 4 0 K 3 K W k Z Z Q O.5 4 m 9.7.l ; q t H S t a 5 e A S M y ^ S M x < ; & D Z c u 8 s ",
"| s i z R W C c &.2XE.W.eXeX2Xw.XX.X7.N.n.y.^.eX%X2XW.6.Z.H.C.S.T.m.b.K.2X0X' : H { Q D C.N.C.R _ D x Y z W.S.n.;XZ.E 0.N.H.x S ",
"yX4X'.%XK.C.@.z /.:X;.m.T.F.u.6.9.u.0.8.-.9.n.K.Q.K.p.p.B.4.j.*.e.y.0.-.e.8.K t ..{ C./.8.C.+XeXyX2XD.-.i..XW.Z.*XH.7.C.J.C.%X3X",
"#XN.J.O.R U b a r.) *.+.*.+._ >.+.( ( Q B +.9.+.( ,.f.*._ p.:.U ) +.+.+.*.W 3 0 j.2.B O.Q =.M.^.J.i.&.U { ( >.=.{ } =.&.R n.4X+X",
"B y.&.U -.%.3 c g.,.+.B F Y F +.+.B R _ =.*.+.+.;.,.,.Y Y +.W O.e.*.+.x S y.7.B c.) M ,.O.U R +.-.0.0.&.R S H S H ^ ! | &.&.y.&.",
"D U U Q =.F.l 2 +.,.+.Q x ( +.F +.R +.9.+.+.B Y b.y.2._ U R _ Q _ ( U i M ,.1.0 / / h.u.Q Q U B R Q e.e._ r.g.5.3.| g./.*.O.+.U ",
"D B e.0.j.'.n - 5.=.+.) Y +.( +._ _ 1.e.+.Y ( Y +.y.n.+.R U Q _ B *.Q o.] a.) O | P.D._ v U Q B m _ M F ,. .d.k.L.L.P.p.Y E R D ",
"D Y M Q E.T.4 2 ) 2.2.+._ F Y F +.=.] 1._ Y _ _ ~ F +.D Y _ B D Y R { .X-XeXj.o &X5Xg.O.Q Q U R &.;.0.l.t./.(.G.{.,X>X1.B Y _ { ",
"p R >.1.p.Q > 2 2.,.F 9 M B S x N B F F f f M M M x M F p ) ( s p D =.&._.F.0 8 U. Xh.U Y Y m p Y 4.i.D.l.c.U.U.k.v.5X-.p Q  .=.",
"p i _ 2.*.< 4 8 M 6 O * * 7 * # 6 6 6 * 6 8 8 - * 6 6 6 * # - * S { S ~ B g  .x ( |.x.x 2 M s p t t.*X/.'.,X XuX8X1X:Xp M a.a.( ",
"= 8 - < $ O y 9 7 < $ $ $ $ # + $ $ $ $ < $ O $ < $ $ $ < + 2 2 p 2 i = - N ) ( y ^ d =   # # * . y &.D.D.K.:X}.K.4.+ $ p S M O "
};
